<svg width="50" height="50" viewBox="0 0 50 50" fill="none" xmlns="http://www.w3.org/2000/svg">
<g clip-path="url(#clip0_35_95)">
<path d="M4.55056 45.0015L0 0H50L45.4455 44.9941L24.9694 50L4.55056 45.0015V45.0015Z" fill="#1572B6"/>
<path d="M25 46L41.1908 42.0024L45 4H25V46Z" fill="#33A9DC"/>
<path d="M25 19.7093H32.9154L33.4627 14.2912H25V9H40L39.8566 10.4195L38.3866 25H25V19.7093Z" fill="white"/>
<path d="M24.9994 34.6425L24.9713 34.6489L17.8622 33.102L17.4071 29H11L11.8947 37.0756L24.9702 40L25 39.9931V34.6425H24.9994Z" fill="#EBEBEB"/>
<path d="M32.7267 25L31.9733 32.4937L25 34.1783V40L37.8178 36.8208L37.9121 35.8753L39 25H32.7267Z" fill="white"/>
<path d="M25 9V14.2904H10.5365L10.4161 13.1014L10.1435 10.4194L10 9H25ZM24.979 19.7091V25H18.3949L18.275 23.811L18.0019 21.1285L17.8583 19.7091H24.979Z" fill="#EBEBEB"/>
</g>
<defs>
<clipPath id="clip0_35_95">
<rect width="50" height="50" fill="white"/>
</clipPath>
</defs>
</svg>
