<svg width="50" height="50" viewBox="0 0 50 50" fill="none" xmlns="http://www.w3.org/2000/svg">
<path d="M45.047 23.1438L26.8549 4.95218C26.3518 4.44919 25.6695 4.16663 24.958 4.16663C24.2466 4.16663 23.5643 4.44919 23.0612 4.95218L19.2835 8.72997L24.0744 13.5218C24.6378 13.3302 25.2435 13.3003 25.823 13.4354C26.4025 13.5706 26.9326 13.8653 27.3531 14.2863C27.7762 14.7097 28.0715 15.2436 28.2054 15.8269C28.3394 16.4103 28.3064 17.0195 28.1104 17.5851L32.7286 22.2033C33.4112 21.9655 34.1543 21.9666 34.8361 22.2064C35.518 22.4463 36.0982 22.9106 36.4815 23.5234C36.8649 24.1362 37.0288 24.861 36.9462 25.5791C36.8637 26.2972 36.5397 26.9659 36.0273 27.4758C35.5057 27.9984 34.819 28.3241 34.0842 28.3973C33.3495 28.4705 32.612 28.2867 31.9975 27.8772C31.3831 27.4677 30.9295 26.8579 30.7142 26.1516C30.4988 25.4453 30.535 24.6861 30.8165 24.0035L26.5094 19.6963L26.5086 31.0312C26.9633 31.2558 27.3579 31.5854 27.6598 31.9928C27.9617 32.4002 28.1622 32.8736 28.2447 33.3739C28.3273 33.8742 28.2894 34.387 28.1344 34.8698C27.9793 35.3525 27.7115 35.7914 27.3531 36.1501C27.0189 36.4842 26.6147 36.74 26.1697 36.8989C25.7246 37.0579 25.2499 37.1161 24.7796 37.0693C24.3094 37.0225 23.8554 36.872 23.4504 36.6285C23.0453 36.385 22.6994 36.0546 22.4376 35.6613C22.1757 35.2679 22.0044 34.8213 21.9361 34.3537C21.8677 33.8861 21.904 33.4091 22.0423 32.9572C22.1806 32.5054 22.4175 32.0898 22.7358 31.7406C23.0542 31.3913 23.4461 31.1171 23.8833 30.9377V19.4979C23.4934 19.3383 23.139 19.103 22.8406 18.8056C22.5421 18.5082 22.3055 18.1547 22.1444 17.7654C21.9833 17.3761 21.9008 16.9588 21.9019 16.5375C21.9029 16.1161 21.9873 15.6992 22.1503 15.3107L17.4274 10.5861L4.95307 23.0598C4.70375 23.309 4.50598 23.6049 4.37104 23.9306C4.23611 24.2563 4.16666 24.6054 4.16666 24.9579C4.16666 25.3104 4.23611 25.6595 4.37104 25.9852C4.50598 26.3109 4.70375 26.6068 4.95307 26.856L23.1451 45.0476C23.6486 45.5507 24.3311 45.8333 25.0428 45.8333C25.7545 45.8333 26.4371 45.5507 26.9405 45.0476L45.047 26.9392C45.2963 26.69 45.494 26.3942 45.629 26.0686C45.7639 25.7429 45.8333 25.3939 45.8333 25.0415C45.8333 24.689 45.7639 24.34 45.629 24.0144C45.494 23.6888 45.2963 23.3929 45.047 23.1438Z" fill="#F34F29"/>
</svg>
