<svg width="50" height="50" viewBox="0 0 50 50" fill="none" xmlns="http://www.w3.org/2000/svg">
<path fill-rule="evenodd" clip-rule="evenodd" d="M20.4517 17.6242C19.2341 17.3177 18.0149 17.4161 16.7282 17.6169C16.7282 19.8717 16.7235 22.0658 16.7404 24.2602C16.7411 24.3726 16.9094 24.5681 17.0185 24.583C18.4216 24.7728 19.8171 24.7881 21.1293 24.1473C22.4868 23.4846 23.1782 22.0989 22.999 20.4721C22.8363 18.9907 21.961 18.0043 20.4517 17.6242V17.6242ZM45.8333 25.0286V4.92373C45.8333 4.22925 45.8409 4.16663 45.168 4.16663H4.98643C4.332 4.16663 4.16666 4.22958 4.16666 4.89093V45.1514C4.16666 45.82 4.24999 45.821 4.89715 45.821C18.3082 45.8214 31.7592 45.8181 45.1703 45.8333C45.6905 45.834 45.83 45.6951 45.8287 45.1842C45.8108 38.4657 45.8333 31.7465 45.8333 25.0286V25.0286ZM22.4709 26.9636C20.6333 27.6203 18.7169 27.6571 16.7328 27.503V34.981H13.0952V34.5165C13.0952 28.2558 13.0665 21.9959 13.0489 15.7356C13.0469 15.2157 13.1293 14.9646 13.7139 14.9049C16.4692 14.6226 19.209 14.3052 21.9487 14.949C24.8938 15.6405 26.5919 17.5914 26.7209 20.2869C26.8806 23.6247 25.4167 25.911 22.4709 26.9636V26.9636ZM37.1237 31.1895C36.9835 33.1017 35.9074 34.3571 34.1425 34.9641C31.7807 35.7765 29.4319 35.588 27.1237 34.6689C26.7457 34.5181 26.6726 34.3273 26.7973 33.9413C27.0245 33.2368 27.1908 32.5125 27.3661 31.8585C28.3419 32.1454 29.2698 32.5036 30.2311 32.6729C30.91 32.7925 31.6438 32.7223 32.334 32.6139C32.9527 32.5165 33.3978 32.0957 33.4993 31.4304C33.6025 30.7541 33.3991 30.1683 32.8032 29.8085C32.3297 29.5229 31.8079 29.3184 31.3075 29.0789C30.503 28.6935 29.6455 28.3914 28.9034 27.9093C25.9831 26.0117 26.9339 22.481 28.8826 21.1513C29.9253 20.4403 31.079 20.1248 32.3141 20.0814C33.7669 20.0304 35.1657 20.2815 36.5397 20.9505L35.8138 23.5313C35.2384 23.3272 34.7027 23.0621 34.1372 22.9568C33.4663 22.8315 32.7626 22.7616 32.0853 22.8169C31.1772 22.8915 30.6455 23.5194 30.6455 24.298C30.6455 24.7592 30.8201 25.1496 31.204 25.3732C31.7549 25.6943 32.3396 25.959 32.919 26.2277C33.546 26.5183 34.208 26.7416 34.8115 27.0733C36.4219 27.958 37.2602 29.3264 37.1237 31.1895Z" fill="#386F9F"/>
</svg>
