<svg width="50" height="50" viewBox="0 0 50 50" fill="none" xmlns="http://www.w3.org/2000/svg">
<path fill-rule="evenodd" clip-rule="evenodd" d="M0.833344 21.9619C0.833344 22.2365 0.914203 22.4178 0.959515 22.594C1.25483 23.7397 1.88959 24.7229 2.64272 25.6197C3.71537 26.8979 5.02905 27.9268 6.37475 28.8944C7.54194 29.7334 8.73295 30.5537 9.90483 31.3865C10.106 31.5295 10.2962 31.694 10.5146 31.8694C10.3267 31.9709 10.1705 32.0604 10.008 32.1428C8.46147 32.9272 6.97358 33.8065 5.60209 34.8717C4.77553 35.5139 3.97631 36.1963 3.41186 37.0881C2.50366 38.5225 2.18217 40.0506 2.85912 41.6822C3.05678 42.1588 3.35834 42.5705 3.78373 42.8748C3.92162 42.9733 4.07631 43.0709 4.23764 43.1092C4.65092 43.2065 5.07201 43.2701 5.49037 43.3471L6.67514 43.3463C7.9853 43.2295 9.17787 42.7807 10.2556 42.0369C11.94 40.8744 13.0747 39.3158 13.5626 37.3155C13.9173 35.8615 13.9318 34.4061 13.5138 32.9588C13.4738 32.8247 13.4277 32.6926 13.3755 32.5627C13.3247 32.4326 13.265 32.3061 13.1947 32.144L15.8806 30.5994L15.9208 30.6338C15.872 30.7936 15.8201 30.953 15.7759 31.1143C15.4568 32.2799 15.2447 33.4658 15.3208 34.6756C15.4021 35.9647 15.7619 37.1713 16.5165 38.2483C17.1267 39.1194 18.5806 39.1518 19.229 38.2776C19.4591 37.967 19.6822 37.6424 19.8497 37.2959C20.2876 36.3916 20.6931 35.4713 21.1115 34.5572L21.1845 34.3901C21.1544 34.8229 21.1193 35.203 21.1033 35.5834C21.0783 36.1776 21.113 36.7682 21.3162 37.3334C21.49 37.817 21.7857 38.1783 22.3396 38.242C22.7185 38.2854 23.0204 38.1119 23.299 37.892C23.7304 37.551 24.0881 37.1259 24.3501 36.6424C25.0927 35.2787 25.8552 33.9233 26.5283 32.5252C27.2564 31.0131 27.8931 29.4569 28.5693 27.919L28.681 27.6463C28.8408 28.274 28.9521 28.8889 29.1572 29.4709C29.3954 30.1463 29.6904 30.8057 30.0115 31.4467C30.1634 31.7494 30.1458 31.9459 29.9353 32.1998C29.054 33.2623 28.188 34.3377 27.3212 35.4119C27.1294 35.649 26.9384 35.8905 26.7787 36.1494C26.6817 36.313 26.618 36.494 26.5912 36.6822C26.5643 36.8555 26.6055 37.0325 26.7062 37.176C26.8069 37.3195 26.9593 37.4185 27.1314 37.4522C27.4787 37.527 27.8348 37.5523 28.1892 37.5276C29.399 37.4385 30.4974 37.0139 31.4685 36.2944C32.7267 35.3623 33.1306 34.0905 32.8259 32.583C32.7435 32.174 32.5978 31.7764 32.456 31.3823C32.3923 31.2045 32.388 31.0799 32.504 30.9143C33.5099 29.478 34.3693 27.9541 35.1685 26.3951C35.2001 26.3338 35.2326 26.2725 35.288 26.2069C35.547 27.5545 35.9369 28.8533 36.6353 30.0319C36.279 30.3752 35.9263 30.6865 35.6072 31.0295C34.9044 31.785 34.2951 32.6053 33.9771 33.6057C33.8404 34.0369 33.7353 34.4752 33.7962 34.9358C33.8908 35.651 34.4767 36.1158 35.1802 35.953C36.6857 35.6045 37.9853 34.8951 38.9349 33.6385C39.574 32.7924 39.6322 31.8487 39.3646 30.86C39.2911 30.5912 39.204 30.3268 39.1103 30.0186C39.4818 29.9033 39.8439 29.7651 40.2185 29.6795C42.1634 29.2358 44.0872 29.3131 45.9615 30.0155C47.0556 30.4256 47.9396 31.1119 48.4638 32.1916C49.104 33.5115 48.7501 34.7639 47.506 35.5983C47.39 35.676 47.2572 35.7373 47.1611 35.8346C47.1303 35.8703 47.1073 35.912 47.0935 35.957C47.0797 36.0021 47.0754 36.0495 47.081 36.0963C47.0892 36.1444 47.2161 36.2045 47.2892 36.2037C47.6982 36.2006 48.0298 35.9862 48.3482 35.7658C49.1458 35.2139 49.7279 34.4713 49.8533 33.4936L49.8779 33.4201L49.8478 32.7834C49.8357 32.7467 49.8568 32.7104 49.854 32.6826C49.6845 31.2588 48.924 30.1545 47.8177 29.2889C46.5365 28.2869 45.0236 27.8744 43.4236 27.8092C42.1259 27.7534 40.8299 27.9528 39.6091 28.3963C39.2587 28.5233 38.9115 28.6737 38.5591 28.8155C38.5119 28.7299 38.4611 28.6479 38.4193 28.5631C38.0576 27.8225 37.6193 27.1147 37.5224 26.2655C37.4536 25.6623 37.3693 25.06 37.5126 24.4635C37.6505 23.8897 37.8302 23.3256 37.9994 22.7596C38.0865 22.4682 38.0251 22.3049 37.747 22.1737C37.6501 22.1253 37.5467 22.0914 37.44 22.0729C36.7564 21.9737 36.0822 22.0303 35.4201 22.2229C35.1857 22.2912 35.0154 22.4225 34.9634 22.6819C34.9337 22.8307 34.8732 22.9733 34.831 23.1201C34.6579 23.7307 34.5353 24.353 34.2556 24.9346C33.5548 26.3936 32.7548 27.7975 31.9361 29.1912C31.8474 29.3416 31.754 29.4893 31.6423 29.6717C31.3548 29.0701 31.0482 28.5303 30.9552 27.8975C30.8501 27.1819 30.7673 26.4674 30.9454 25.7573C31.0779 25.2276 31.2509 24.7076 31.4103 24.185C31.4857 23.9365 31.4509 23.8061 31.2259 23.6752C31.1122 23.6092 30.9837 23.5506 30.8556 23.5315C30.1547 23.4247 29.4385 23.4833 28.7642 23.7026C28.5521 23.7713 28.4408 23.9084 28.3759 24.1272C28.1853 24.7725 28.0228 25.4334 27.7552 26.0471C26.6716 28.5315 25.5568 31.003 24.4431 33.474C24.2107 33.9901 23.9384 34.4881 23.6763 34.9905C23.6099 35.1178 23.513 35.2299 23.4302 35.3494C23.3638 35.2709 23.338 35.217 23.3384 35.1631C23.3404 34.8455 23.3025 34.5186 23.363 34.2115C23.549 33.283 23.7545 32.3584 23.9794 31.4385C24.163 30.6783 24.3767 29.9252 24.5802 29.1701C24.6486 28.9174 24.6497 28.6811 24.4681 28.4686C24.163 28.1127 23.5255 28.0346 23.1474 28.3088L22.9802 28.4033L23.0126 28.1338C23.0923 27.5561 23.1083 26.9803 22.9497 26.4112C22.7521 25.7018 22.2458 25.2936 21.5099 25.3162C21.1669 25.3268 20.8068 25.3854 20.4892 25.5104C19.1537 26.0338 18.1267 26.9608 17.2525 28.076C17.1714 28.1795 17.071 28.2663 16.9568 28.3315C15.8267 28.958 14.6931 29.5768 13.5599 30.1979L12.2986 30.8889C11.9603 30.5662 11.6529 30.2315 11.304 29.9475C10.2388 29.0787 9.15639 28.2315 8.08373 27.3725C7.13295 26.6112 6.21186 25.8182 5.50717 24.81C4.98295 24.06 4.64506 23.2393 4.61264 22.3119C4.57162 21.1303 4.90678 20.0506 5.50834 19.0455C6.27787 17.7596 7.32748 16.7276 8.48139 15.7928C9.70209 14.8045 11.0224 13.9655 12.3908 13.1994C14.3052 12.128 16.2744 11.1795 18.3857 10.5533C20.5505 9.91116 22.747 9.54358 25.0126 9.79983C25.9033 9.90061 26.7681 10.1045 27.5622 10.5401C28.1704 10.8733 28.6693 11.3096 28.9013 11.9916C29.1302 12.6627 29.1232 13.3428 28.9646 14.0244C28.6423 15.4049 27.8865 16.5428 26.9353 17.5596C25.3751 19.2264 23.472 20.3612 21.3294 21.1108C20.0975 21.5423 18.8158 21.8157 17.515 21.9244C16.449 22.0139 15.4052 21.9194 14.3958 21.5487C13.7275 21.303 13.1455 20.9272 12.6775 20.3819C12.5939 20.2842 12.4869 20.1783 12.331 20.2698C12.1783 20.3596 12.1513 20.5049 12.2025 20.6522C12.288 20.8967 12.3669 21.1514 12.5001 21.3701C12.8349 21.919 13.3232 22.317 13.8607 22.6584C14.8931 23.3151 16.047 23.5358 17.2435 23.5869C19.0591 23.6655 20.8306 23.3944 22.5771 22.9072C25.0704 22.2119 27.2384 20.9838 28.9771 19.0463C30.4247 17.433 31.4587 15.6123 31.6802 13.4139C31.7884 12.3408 31.6732 11.2897 31.1708 10.3108C30.6259 9.25022 29.7595 8.46155 28.7236 7.91819C27.215 7.12717 25.5869 6.66663 23.9064 6.66663H22.2228C20.1876 6.66663 18.2201 7.24983 16.3076 7.94553C14.8599 8.47249 13.4404 9.09436 12.0622 9.78264C9.06108 11.2823 6.26616 13.0905 3.97045 15.5768C2.8267 16.8155 1.85834 18.1822 1.30131 19.7916C1.13319 20.2721 0.988359 20.7604 0.867328 21.2549M11.7419 35.3225C11.6119 37.0643 10.8224 38.4764 9.53217 39.6201C8.80639 40.2631 7.97397 40.7209 7.00444 40.8819C6.65287 40.9401 6.29311 40.9541 5.95209 40.8084C5.46576 40.6006 5.35678 40.169 5.34741 39.7092C5.33295 38.9764 5.58959 38.3139 5.94155 37.6834C6.40092 36.8615 7.07436 36.235 7.7935 35.6498C8.92631 34.7276 10.1552 33.9471 11.4138 33.2104L11.5087 33.1713C11.7033 33.8901 11.7958 34.5998 11.7419 35.3225V35.3225ZM21.5693 27.7526C21.4775 28.3088 21.3626 28.8655 21.2001 29.4045C20.6384 31.2705 19.9169 33.0787 19.1369 34.8627C18.9927 35.1928 18.7829 35.494 18.6005 35.8069C18.5695 35.855 18.5323 35.8988 18.49 35.9373C18.2642 36.1604 18.0501 36.1487 17.9361 35.8569C17.8033 35.5178 17.7216 35.1549 17.6513 34.7959C17.604 34.5549 17.6154 34.3018 17.6005 34.0549C17.6158 32.2994 18.1513 30.7041 19.0599 29.219C19.4345 28.6065 19.8423 28.0229 20.4654 27.6354C20.6592 27.5149 20.8689 27.422 21.0884 27.3596C21.4204 27.2662 21.6244 27.4198 21.5693 27.7526V27.7526ZM28.274 36.2947L30.6837 33.4811C30.7841 34.526 29.0079 36.6119 28.274 36.2947ZM35.9704 34.4014C35.8001 34.499 35.6146 34.5694 35.44 34.6596C35.2802 34.7424 35.2275 34.6588 35.2228 34.5213C35.2204 34.4261 35.2327 34.3311 35.2591 34.2397C35.5845 33.092 36.1833 32.1123 37.0744 31.3155L37.1369 31.2834C37.5607 32.469 37.0708 33.7709 35.9704 34.4014Z" fill="#CB6699"/>
</svg>
