<svg width="50" height="52" viewBox="0 0 50 52" fill="none" xmlns="http://www.w3.org/2000/svg">
<g clip-path="url(#clip0_35_103)" filter="url(#filter0_d_35_103)">
<path d="M17.7734 50.3906C22.4219 50.3906 26.1719 46.6406 26.1719 41.9922V33.5938H17.7734C13.125 33.5938 9.375 37.3438 9.375 41.9922C9.375 46.6406 13.125 50.3906 17.7734 50.3906Z" fill="#0ACF83"/>
<path d="M9.375 25.1953C9.375 20.5469 13.125 16.7969 17.7734 16.7969H26.1719V33.5938H17.7734C13.125 33.5938 9.375 29.8437 9.375 25.1953Z" fill="#A259FF"/>
<path d="M9.375 8.39844C9.375 3.75 13.125 0 17.7734 0H26.1719V16.7969H17.7734C13.125 16.7969 9.375 13.0469 9.375 8.39844Z" fill="#F24E1E"/>
<path d="M26.1719 0H34.5703C39.2187 0 42.9688 3.75 42.9688 8.39844C42.9688 13.0469 39.2187 16.7969 34.5703 16.7969H26.1719V0Z" fill="#FF7262"/>
<path d="M42.9688 25.1953C42.9688 29.8437 39.2187 33.5938 34.5703 33.5938C29.9219 33.5938 26.1719 29.8437 26.1719 25.1953C26.1719 20.5469 29.9219 16.7969 34.5703 16.7969C39.2187 16.7969 42.9688 20.5469 42.9688 25.1953Z" fill="#1ABCFE"/>
</g>
<defs>
<filter id="filter0_d_35_103" x="-4" y="0" width="58" height="58" filterUnits="userSpaceOnUse" color-interpolation-filters="sRGB">
<feFlood flood-opacity="0" result="BackgroundImageFix"/>
<feColorMatrix in="SourceAlpha" type="matrix" values="0 0 0 0 0 0 0 0 0 0 0 0 0 0 0 0 0 0 127 0" result="hardAlpha"/>
<feOffset dy="4"/>
<feGaussianBlur stdDeviation="2"/>
<feComposite in2="hardAlpha" operator="out"/>
<feColorMatrix type="matrix" values="0 0 0 0 0 0 0 0 0 0 0 0 0 0 0 0 0 0 0.25 0"/>
<feBlend mode="normal" in2="BackgroundImageFix" result="effect1_dropShadow_35_103"/>
<feBlend mode="normal" in="SourceGraphic" in2="effect1_dropShadow_35_103" result="shape"/>
</filter>
<clipPath id="clip0_35_103">
<rect width="50" height="50" fill="white"/>
</clipPath>
</defs>
</svg>
