<svg width="49" height="50" viewBox="0 0 49 50" fill="none" xmlns="http://www.w3.org/2000/svg">
<path d="M47.9105 28.5882L45.2245 19.2399L39.9013 0.715303C39.628 -0.238434 38.4355 -0.238434 38.1612 0.715303L32.8379 19.2405H15.1621L9.83881 0.715303C9.56499 -0.238434 8.37252 -0.238434 8.09871 0.715303L2.77546 19.2405L0.0895346 28.5888C-0.0298526 29.0044 -0.0298448 29.452 0.0895576 29.8676C0.20896 30.2832 0.441628 30.6453 0.754222 30.9022L24 50L47.2458 30.9016C47.5584 30.6447 47.791 30.2826 47.9104 29.867C48.0298 29.4514 48.0299 29.0038 47.9105 28.5882" fill="#FC6D26"/>
<path d="M23.5 50L32 20H15L23.5 50Z" fill="#E24329"/>
<path d="M24 50L14.8392 20H2L24 50Z" fill="#FC6D26"/>
<path d="M2.77534 20L0.0893975 29.1175C-0.0298687 29.5227 -0.0297973 29.9592 0.0896009 30.3644C0.208999 30.7696 0.441599 31.1227 0.754089 31.3732L24 50L2.77534 20Z" fill="#FCA326"/>
<path d="M2 20H15L9.41314 0.74305C9.12576 -0.247683 7.87424 -0.247683 7.58686 0.74305L2 20Z" fill="#E24329"/>
<path d="M24 50L32.7444 20H45L24 50Z" fill="#FC6D26"/>
<path d="M45.2247 20L47.9106 29.1175C48.0299 29.5227 48.0298 29.9592 47.9104 30.3644C47.791 30.7696 47.5584 31.1227 47.2459 31.3732L24 50L45.2247 20V20Z" fill="#FCA326"/>
<path d="M45 20H32L37.5869 0.74305C37.8742 -0.247683 39.1258 -0.247683 39.4131 0.74305L45 20V20Z" fill="#E24329"/>
</svg>
