<svg width="50" height="50" viewBox="0 0 50 50" fill="none" xmlns="http://www.w3.org/2000/svg">
<g clip-path="url(#clip0_35_56)">
<path d="M4.55034 45.002L0 0H50L45.4451 44.995L24.9694 50L4.55034 45.002Z" fill="#E44D26"/>
<path d="M25 46L41.1905 42.0023L45 4H25V46Z" fill="#F16529"/>
<path d="M25 20.4381H16.5562L15.9737 14.6508H25V9H9L9.15225 10.5164L10.7209 26.0884H25V20.4381ZM25 35.1132L24.9717 35.1198L17.8659 33.4201L17.4115 28.9138H11.0058L11.8998 37.7864L24.9706 41L25 40.9923V35.1132Z" fill="#EBEBEB"/>
<path d="M25 20.4391V26.09H32.8649L32.1237 33.4194L25 35.1208V41L38.0939 37.7892L38.1898 36.834L39.6907 21.9562L39.8466 20.4391H38.1251H25ZM25 9V14.6514H40.4279L40.5555 13.381L40.847 10.5165L41 9H25Z" fill="white"/>
</g>
<defs>
<clipPath id="clip0_35_56">
<rect width="50" height="50" fill="white"/>
</clipPath>
</defs>
</svg>
