<svg width="49" height="50" viewBox="0 0 49 50" fill="none" xmlns="http://www.w3.org/2000/svg">
<g clip-path="url(#clip0_35_65)">
<path d="M-0.450001 0.550049H48.45V49.4504H-0.450001V0.550049Z" fill="#F0DB4F"/>
<path d="M44.4481 37.7875C44.0898 35.5567 42.6352 33.6828 38.3262 31.9356C36.8293 31.2477 35.1605 30.7551 34.6633 29.6207C34.4867 28.9606 34.4633 28.5887 34.575 28.1891C34.8957 26.8922 36.4438 26.4879 37.6707 26.8598C38.4609 27.1246 39.209 27.7336 39.6602 28.7051C41.7703 27.3387 41.766 27.3477 43.2395 26.4086C42.7 25.5723 42.4121 25.1864 42.059 24.8285C40.7898 23.411 39.0605 22.6809 36.2949 22.7367L34.8543 22.9231C33.4738 23.2719 32.1582 23.9965 31.3867 24.968C29.0719 27.5946 29.732 32.1914 32.5488 34.0832C35.3238 36.166 39.4004 36.6399 39.9211 38.5875C40.4277 40.9719 38.1688 41.7438 35.9234 41.4696C34.2688 41.1254 33.3484 40.2844 32.3535 38.7551C30.5223 39.8149 30.5223 39.8149 28.6395 40.8977C29.0859 41.8739 29.5551 42.3157 30.3035 43.1614C33.8457 46.7543 42.7098 46.5778 44.2996 41.1395C44.3641 40.9528 44.7922 39.7075 44.4481 37.7875ZM26.1336 23.0246H21.5598L21.541 34.8496C21.541 37.3645 21.6711 39.67 21.2621 40.3766C20.593 41.7664 18.859 41.5942 18.0688 41.3246C17.2645 40.9293 16.8555 40.3672 16.3816 39.5727C16.2516 39.3446 16.1539 39.168 16.1211 39.1543L12.4023 41.4317C13.0207 42.7008 13.9316 43.8024 15.0984 44.518C16.8414 45.5641 19.184 45.8848 21.634 45.3223C23.2285 44.8578 24.6043 43.8957 25.3246 42.4313C26.366 40.5114 26.1426 38.1875 26.1332 35.6172C26.1566 31.4239 26.1336 27.2313 26.1336 23.0246Z" fill="#323330"/>
</g>
<defs>
<clipPath id="clip0_35_65">
<rect width="50" height="50" fill="white" transform="translate(-1)"/>
</clipPath>
</defs>
</svg>
