<svg width="50" height="50" viewBox="0 0 50 50" fill="none" xmlns="http://www.w3.org/2000/svg">
<path d="M0.781641 35.3352H2.38633V28.9981L4.8707 34.5227C5.16367 35.1914 5.56484 35.4277 6.35195 35.4277C7.13906 35.4277 7.525 35.1914 7.81797 34.5227L10.3023 28.9981V35.3352H11.907V29.0086C11.907 28.3914 11.6602 28.0926 11.1508 27.9387C9.93164 27.5582 9.11367 27.8875 8.74336 28.7106L6.30547 34.1629L3.94492 28.7102C3.58984 27.8875 2.75664 27.5582 1.5375 27.9383C1.02813 28.0926 0.78125 28.391 0.78125 29.0082V35.3352H0.781641ZM13.2418 30.1766H14.8461V33.668C14.8312 33.8574 14.907 34.3027 15.7859 34.3168C16.2344 34.3238 19.2477 34.3168 19.2758 34.3168V30.1594H20.884C20.8914 30.1594 20.8824 35.8289 20.8824 35.8524C20.891 37.2508 19.1477 37.5543 18.3437 37.5777H13.2766V36.4981C13.2852 36.4981 18.3402 36.4992 18.3527 36.4977C19.3859 36.3887 19.2637 35.8754 19.2633 35.7027V35.2816H15.8527C14.266 35.2672 13.2551 34.5746 13.2422 33.7777C13.2414 33.7047 13.277 30.2117 13.2418 30.1766V30.1766Z" fill="#00618A"/>
<path d="M22.1211 35.3351H26.7352C27.2754 35.3351 27.8004 35.2222 28.2168 35.0269C28.9109 34.7082 29.2504 34.2761 29.2504 33.7097V32.5371C29.2504 32.0742 28.8648 31.6417 28.1086 31.3542C27.7074 31.1996 27.2133 31.1179 26.7348 31.1179H24.7902C24.1422 31.1179 23.8336 30.9226 23.7566 30.4906C23.7414 30.439 23.7414 30.398 23.7414 30.3464V29.616C23.7414 29.575 23.7414 29.5335 23.7566 29.4824C23.8336 29.1531 24.0035 29.0605 24.5746 29.0089L24.7289 28.9988H29.3121V27.9292H24.8063C24.1582 27.9292 23.8188 27.9703 23.5102 28.0628C22.5535 28.3613 22.1363 28.8343 22.1363 29.6574V30.5933C22.1363 31.3136 22.9547 31.9308 24.3277 32.075C24.4824 32.0847 24.6363 32.0957 24.7906 32.0957H26.4574C26.5191 32.0957 26.5809 32.0957 26.6273 32.1054C27.1367 32.1464 27.3523 32.2394 27.507 32.4242C27.5467 32.4608 27.5781 32.5053 27.5993 32.555C27.6205 32.6046 27.631 32.6581 27.6301 32.7121V33.6484C27.6301 33.7613 27.5531 33.9054 27.3988 34.0289C27.2602 34.1523 27.0285 34.2347 26.7199 34.2554L26.55 34.2656H22.1211V35.3351ZM39.2621 33.4734C39.2621 34.5738 40.0801 35.191 41.7309 35.3148C41.8852 35.325 42.0395 35.3351 42.1938 35.3351H46.3758V34.2656H42.1633C41.2219 34.2656 40.8672 34.0289 40.8672 33.4628V27.9285H39.2625V33.4734H39.2621ZM30.2746 33.5289V29.7144C30.2746 28.7457 30.9551 28.1578 32.3004 27.9722C32.4437 27.9517 32.5884 27.9413 32.7332 27.9414H35.7797C35.9344 27.9414 36.0734 27.9515 36.2277 27.9722C37.573 28.1578 38.2539 28.7453 38.2539 29.7144V33.5289C38.2539 34.3156 37.9648 34.7359 37.2988 35.0101L38.8801 36.4371H37.0164L35.7375 35.2824L34.45 35.364H32.7332C32.4143 35.362 32.0971 35.3169 31.7902 35.23C30.7695 34.9519 30.2746 34.4156 30.2746 33.5289V33.5289ZM32.0066 33.4363C32.0066 33.4878 32.0219 33.5398 32.0375 33.6015C32.1301 34.0449 32.548 34.2921 33.1816 34.2921H34.6395L33.3004 33.0832H35.1641L36.3316 34.1378C36.5473 34.0226 36.6887 33.8476 36.7383 33.6222C36.7535 33.5707 36.7535 33.5191 36.7535 33.4675V29.8082C36.7535 29.7671 36.7535 29.7152 36.7383 29.6636C36.6453 29.2511 36.2277 29.0144 35.6094 29.0144H33.1813C32.4703 29.0144 32.0062 29.3238 32.0062 29.8082V33.4363H32.0066Z" fill="#E48E00"/>
<path d="M47.7875 26.1532C46.8012 26.1262 46.0477 26.218 45.4031 26.4895C45.2199 26.5669 44.9281 26.5688 44.8984 26.7981C44.9988 26.904 45.0144 27.0614 45.0945 27.1911C45.2484 27.4399 45.5082 27.7735 45.7398 27.9481C45.9926 28.1391 46.2535 28.3438 46.5254 28.5094C47.0078 28.804 47.5469 28.9719 48.0121 29.2665C48.2859 29.4407 48.5578 29.6594 48.8254 29.8559C48.9578 29.9524 49.0461 30.1036 49.2184 30.1641V30.1364C49.1281 30.0215 49.1047 29.8637 49.0219 29.7434L48.657 29.3786C48.3004 28.9051 47.848 28.4899 47.3664 28.1446C46.9828 27.8692 46.1242 27.4969 45.9641 27.0505L45.9359 27.0227C46.2078 26.9919 46.5266 26.8934 46.7773 26.8262C47.1992 26.713 47.5762 26.7422 48.0117 26.6297L48.6008 26.461V26.3493C48.3809 26.1235 48.2234 25.8243 47.9836 25.62C47.3559 25.0852 46.6699 24.5508 45.9641 24.1047C45.5727 23.8579 45.0887 23.6973 44.6734 23.488C44.5344 23.4172 44.2891 23.3809 44.1965 23.2633C43.9781 22.9856 43.8598 22.6337 43.6914 22.3098C43.3318 21.6103 42.9951 20.8992 42.6816 20.1778C42.4691 19.6915 42.3301 19.2118 42.0648 18.7755C40.791 16.6813 39.4199 15.4172 37.2961 14.1751C36.8441 13.9106 36.3 13.8067 35.7254 13.6704L34.7996 13.6141C34.6117 13.5356 34.4156 13.3051 34.2387 13.1934C33.5348 12.7489 31.7301 11.7821 31.209 13.0536C30.8801 13.8559 31.7012 14.6387 31.9945 15.0454C32.2004 15.3305 32.4644 15.6501 32.6117 15.9708C32.7086 16.1817 32.725 16.393 32.8082 16.6161C33.0117 17.1653 33.1894 17.7633 33.4531 18.2708C33.5863 18.5278 33.7336 18.7985 33.9019 19.0282C34.0051 19.1688 34.1824 19.2313 34.2102 19.4489C34.0371 19.6911 34.0269 20.0676 33.9297 20.3743C33.4914 21.7567 33.6566 23.4751 34.2945 24.4981C34.4902 24.8126 34.9512 25.486 35.5848 25.2274C36.1391 25.0016 36.0156 24.302 36.1742 23.6844C36.2102 23.545 36.1879 23.4419 36.2582 23.3481V23.3762L36.7633 24.386C37.1371 24.988 37.8 25.6165 38.3621 26.0411C38.6535 26.261 38.8832 26.6419 39.2598 26.7704V26.7419H39.232C39.1586 26.6282 39.0449 26.5813 38.9512 26.4895C38.7316 26.2743 38.4875 26.0071 38.3062 25.7602C37.7949 25.0665 37.3434 24.3067 36.9316 23.5161C36.7352 23.1387 36.5644 22.7223 36.3988 22.338C36.3348 22.1899 36.3355 21.9657 36.2027 21.8895C36.0207 22.1708 35.7539 22.3985 35.6133 22.7309C35.3891 23.2622 35.3602 23.9102 35.2769 24.5821L35.2207 24.6098C34.8297 24.5157 34.6926 24.1133 34.5473 23.7684C34.1801 22.8962 34.1117 21.4911 34.4352 20.4868C34.5187 20.2266 34.8965 19.4083 34.7434 19.168C34.6703 18.9286 34.4293 18.7903 34.2949 18.6067C34.1186 18.361 33.9682 18.0978 33.8461 17.8212C33.5453 17.1411 33.4051 16.3774 33.0891 15.6895C32.9375 15.3606 32.682 15.0282 32.4719 14.736C32.2394 14.4118 31.9789 14.1735 31.7984 13.7821C31.7344 13.643 31.6473 13.42 31.7422 13.277C31.7723 13.1805 31.8156 13.1403 31.9109 13.1087C32.0734 12.9833 32.5266 13.1505 32.6961 13.2208C33.1461 13.4079 33.5215 13.5856 33.9027 13.838C34.0855 13.9594 34.2703 14.1938 34.4918 14.2587H34.7441C35.1391 14.3493 35.5816 14.2864 35.9504 14.3985C36.6027 14.5969 37.1871 14.9051 37.7176 15.2403C39.3344 16.2614 40.6559 17.7145 41.5605 19.4481C41.7059 19.7274 41.7691 19.9934 41.8969 20.2895C42.1555 20.8864 42.4812 21.5008 42.7383 22.0848C42.9949 22.6672 43.2453 23.2551 43.6082 23.7399C43.7988 23.9946 44.5355 24.1313 44.8703 24.2727C45.1051 24.3719 45.4895 24.4755 45.7117 24.609C46.1363 24.8653 46.548 25.1704 46.9461 25.4508C47.1449 25.5922 47.757 25.8997 47.7875 26.1532V26.1532ZM35.2488 15.4661C35.0788 15.4633 34.909 15.4822 34.7437 15.5223V15.5501H34.7719C34.8699 15.752 35.043 15.8817 35.1644 16.0551L35.4453 16.6442L35.473 16.6165C35.6469 16.4942 35.7262 16.2985 35.7254 15.9993C35.6555 15.9258 35.6453 15.834 35.5852 15.7469C35.5055 15.6297 35.35 15.5641 35.2488 15.4661V15.4661Z" fill="#00618A"/>
</svg>
