<svg width="50" height="50" viewBox="0 0 50 50" fill="none" xmlns="http://www.w3.org/2000/svg">
<path d="M44.6582 31.5426C44.5449 31.5426 44.4324 31.5129 44.3332 31.4551L43.298 30.8426C43.1434 30.7563 43.2188 30.7254 43.2699 30.7079C43.4762 30.636 43.518 30.6192 43.7379 30.495C43.7609 30.4821 43.791 30.4868 43.8148 30.5008L44.6098 30.9731C44.6245 30.981 44.6411 30.9851 44.6578 30.9851C44.6746 30.9851 44.6911 30.981 44.7059 30.9731L47.8063 29.1837C47.8208 29.175 47.8329 29.1628 47.8413 29.148C47.8496 29.1333 47.854 29.1166 47.8539 29.0997V25.5215C47.8539 25.5044 47.8495 25.4875 47.8411 25.4725C47.8327 25.4575 47.8205 25.4449 47.8059 25.436L44.7066 23.6481C44.692 23.64 44.6755 23.6358 44.6588 23.6358C44.6421 23.6358 44.6256 23.64 44.6109 23.6481L41.5121 25.4364C41.4974 25.4453 41.4852 25.4577 41.4767 25.4726C41.4681 25.4875 41.4635 25.5044 41.4633 25.5215V29.0997C41.4633 29.134 41.4824 29.1665 41.5121 29.1825L42.3613 29.6735C42.8223 29.9036 43.1047 29.6325 43.1047 29.3598V25.8266C43.1047 25.777 43.1449 25.7376 43.1945 25.7376H43.5879C43.6367 25.7376 43.6773 25.777 43.6773 25.8266V29.3598C43.6773 29.9747 43.3426 30.3274 42.7594 30.3274C42.5801 30.3274 42.4391 30.3274 42.0453 30.1336L41.2324 29.6657C41.1335 29.608 41.0515 29.5255 40.9945 29.4262C40.9374 29.327 40.9074 29.2145 40.9074 29.1001V25.5219C40.9074 25.2895 41.0312 25.0727 41.2324 24.9571L44.3328 23.1653C44.4327 23.1109 44.5446 23.0824 44.6584 23.0824C44.7721 23.0824 44.8841 23.1109 44.984 23.1653L48.0844 24.9571C48.2852 25.0731 48.4098 25.2899 48.4098 25.5219V29.1001C48.4096 29.2145 48.3794 29.327 48.3224 29.4262C48.2653 29.5254 48.1832 29.608 48.0844 29.6657L44.984 31.4555C44.885 31.5129 44.7726 31.543 44.6582 31.5426ZM45.6164 29.0774C44.259 29.0774 43.975 28.4544 43.975 27.9321C43.9751 27.9083 43.9846 27.8856 44.0015 27.8688C44.0183 27.852 44.0411 27.8426 44.0648 27.8426H44.4656C44.4871 27.8426 44.5078 27.8502 44.5242 27.8641C44.5405 27.8779 44.5513 27.8972 44.5547 27.9184C44.6148 28.3266 44.7957 28.5325 45.6164 28.5325C46.2691 28.5325 46.5473 28.3848 46.5473 28.0379C46.5473 27.8379 46.4684 27.6899 45.4535 27.5903C44.6051 27.5063 44.0805 27.3192 44.0805 26.6399C44.0805 26.0145 44.6078 25.6411 45.4914 25.6411C46.4848 25.6411 46.9762 25.986 47.0383 26.7258C47.0393 26.7383 47.0377 26.7508 47.0337 26.7626C47.0296 26.7744 47.0232 26.7853 47.0148 26.7946C47.0064 26.8035 46.9962 26.8106 46.9849 26.8155C46.9736 26.8204 46.9615 26.823 46.9492 26.8231H46.5465C46.5262 26.8231 46.5065 26.8162 46.4906 26.8035C46.4748 26.7908 46.4637 26.773 46.4594 26.7532C46.3625 26.3235 46.1281 26.1864 45.491 26.1864C44.7781 26.1864 44.6953 26.4352 44.6953 26.6208C44.6953 26.8462 44.793 26.9118 45.7559 27.0391C46.7086 27.1653 47.1613 27.3434 47.1613 28.0133C47.1617 28.6903 46.5984 29.0774 45.6164 29.0774Z" fill="#83CD29"/>
<path d="M38.2742 26.7305C38.3965 26.659 38.4719 26.5285 38.4719 26.3867V25.4672C38.4719 25.3258 38.3969 25.1953 38.2742 25.1238L35.007 23.2269C34.9466 23.1918 34.878 23.1732 34.8081 23.1731C34.7382 23.173 34.6695 23.1913 34.609 23.2262L31.3215 25.1242C31.2612 25.1591 31.2111 25.2092 31.1763 25.2695C31.1415 25.3299 31.1231 25.3983 31.123 25.468V29.2633C31.123 29.4058 31.1996 29.5379 31.3238 29.6086L34.5906 31.4699C34.7109 31.539 34.8586 31.5394 34.9801 31.4722L36.9559 30.3738C36.9866 30.3567 37.0123 30.3318 37.0302 30.3016C37.0482 30.2713 37.0578 30.2368 37.058 30.2016C37.0582 30.1665 37.0491 30.1319 37.0316 30.1014C37.0141 30.0709 36.9887 30.0456 36.9582 30.0281L33.6504 28.1297C33.62 28.1124 33.5948 28.0874 33.5773 28.0572C33.5597 28.027 33.5504 27.9927 33.5504 27.9578V26.768C33.5504 26.6969 33.5883 26.6316 33.6496 26.5965L34.6797 26.0027C34.7098 25.9853 34.7439 25.9761 34.7787 25.9761C34.8135 25.9761 34.8477 25.9853 34.8777 26.0027L35.9078 26.5965C35.938 26.6138 35.9631 26.6387 35.9806 26.6688C35.9981 26.699 36.0074 26.7331 36.0074 26.768V27.7039C36.0072 27.7389 36.0163 27.7733 36.0337 27.8037C36.0511 27.834 36.0763 27.8592 36.1066 27.8767C36.137 27.8941 36.1714 27.9033 36.2064 27.9031C36.2414 27.9029 36.2757 27.8935 36.3059 27.8758L38.2742 26.7305Z" fill="#404137"/>
<path d="M34.7594 26.5524C34.771 26.5459 34.7841 26.5425 34.7975 26.5425C34.8108 26.5425 34.8239 26.5459 34.8355 26.5524L35.4664 26.9168C35.4898 26.9305 35.5043 26.9559 35.5043 26.9829V27.7114C35.5043 27.7387 35.4898 27.7637 35.4664 27.7774L34.8355 28.1415C34.824 28.1482 34.8108 28.1517 34.7975 28.1517C34.7841 28.1517 34.7709 28.1482 34.7594 28.1415L34.1289 27.7774C34.1173 27.7708 34.1076 27.7612 34.1008 27.7496C34.0941 27.738 34.0906 27.7248 34.0906 27.7114V26.9829C34.0906 26.9559 34.1051 26.9305 34.1289 26.9168L34.7594 26.5524Z" fill="#83CD29"/>
<path d="M26.2043 28.0679C26.2043 28.1031 26.1855 28.1359 26.1547 28.1539L25.0258 28.8046C25.0107 28.8135 24.9936 28.8181 24.9762 28.8181C24.9587 28.8181 24.9416 28.8135 24.9266 28.8046L23.7977 28.1539C23.7826 28.1451 23.7701 28.1326 23.7614 28.1175C23.7527 28.1024 23.7481 28.0853 23.748 28.0679V26.764C23.748 26.7289 23.7672 26.6957 23.7977 26.6777L24.9266 26.0261C24.9416 26.0171 24.9588 26.0123 24.9764 26.0123C24.9939 26.0123 25.0111 26.0171 25.0262 26.0261L26.1555 26.6777C26.1704 26.6866 26.1828 26.6992 26.1915 26.7144C26.2001 26.7295 26.2046 26.7466 26.2047 26.764V28.0679H26.2043ZM26.5094 18.4132C26.4791 18.3967 26.4451 18.3883 26.4106 18.3888C26.3761 18.3894 26.3423 18.3988 26.3126 18.4163C26.2828 18.4338 26.2581 18.4586 26.2409 18.4885C26.2236 18.5184 26.2144 18.5522 26.2141 18.5867V23.6316C26.214 23.6559 26.2075 23.6798 26.1954 23.7009C26.1833 23.722 26.1659 23.7396 26.1449 23.7519C26.1237 23.764 26.0998 23.7704 26.0754 23.7704C26.051 23.7704 26.027 23.764 26.0059 23.7519L25.1824 23.2773C25.1221 23.2426 25.0538 23.2243 24.9842 23.2243C24.9146 23.2243 24.8462 23.2426 24.7859 23.2773L21.4977 25.175C21.4372 25.2098 21.3871 25.26 21.3522 25.3204C21.3173 25.3808 21.2989 25.4493 21.2988 25.5191V29.3156C21.2988 29.4574 21.3746 29.5882 21.4973 29.6597L24.7855 31.5585C24.9082 31.6296 25.0598 31.6296 25.1828 31.5585L28.4719 29.6597C28.5322 29.6247 28.5822 29.5745 28.617 29.5141C28.6519 29.4538 28.6702 29.3853 28.6703 29.3156V19.8519C28.6703 19.7082 28.5922 19.5753 28.4668 19.505L26.5094 18.4132Z" fill="#404137"/>
<path d="M14.9367 23.2059C14.997 23.171 15.0655 23.1526 15.1352 23.1526C15.2048 23.1526 15.2733 23.171 15.3336 23.2059L18.6219 25.1031C18.7445 25.1742 18.8203 25.3055 18.8203 25.4473V29.2449C18.8203 29.3867 18.7445 29.518 18.6219 29.5891L15.334 31.4879C15.2736 31.5227 15.2051 31.541 15.1354 31.541C15.0656 31.541 14.9971 31.5227 14.9367 31.4879L11.6496 29.5891C11.5893 29.5541 11.5393 29.5039 11.5044 29.4435C11.4696 29.3831 11.4513 29.3146 11.4512 29.2449V25.4469C11.4512 25.3055 11.527 25.1742 11.6496 25.1031L14.9367 23.2059Z" fill="#83CD29"/>
<path d="M8.95703 25.4156C8.95703 25.2727 8.88203 25.1414 8.75859 25.0707L5.47149 23.1789C5.41628 23.1469 5.35401 23.1291 5.29024 23.127H5.25625C5.19248 23.1291 5.13022 23.1469 5.075 23.1789L1.7875 25.0707C1.72702 25.1057 1.67682 25.156 1.64192 25.2165C1.60702 25.2771 1.58866 25.3457 1.58867 25.4156L1.5957 30.5094C1.5957 30.5805 1.63281 30.6465 1.69492 30.6809C1.72466 30.6989 1.75878 30.7084 1.79356 30.7084C1.82833 30.7084 1.86245 30.6989 1.89219 30.6809L3.84531 29.5621C3.96875 29.4887 4.04414 29.3594 4.04414 29.2176V26.8379C4.04414 26.6957 4.11914 26.5648 4.24219 26.4937L5.07422 26.0148C5.13436 25.9795 5.20291 25.961 5.27266 25.9613C5.34063 25.9613 5.41016 25.9785 5.4707 26.0148L6.30195 26.4937C6.425 26.5648 6.50078 26.6957 6.50078 26.8379V29.2176C6.50078 29.3594 6.57695 29.4895 6.69961 29.5621L8.65273 30.6809C8.68285 30.6981 8.71696 30.7071 8.75165 30.707C8.78633 30.7069 8.82039 30.6977 8.85043 30.6804C8.88047 30.663 8.90543 30.6381 8.92283 30.6081C8.94024 30.5781 8.94947 30.5441 8.94961 30.5094L8.95703 25.4156Z" fill="#404137"/>
</svg>
