<svg width="50" height="50" viewBox="0 0 50 50" fill="none" xmlns="http://www.w3.org/2000/svg">
<g clip-path="url(#clip0_35_81)">
<path fill-rule="evenodd" clip-rule="evenodd" d="M15.8892 12.8592C18.3303 12.8592 20.7713 12.8955 23.2091 12.8341C23.8558 12.8178 25.0159 13.3336 24.9639 12.0374C24.9242 10.9826 23.9097 11.3643 23.2949 11.3549C20.5413 11.3129 17.7785 11.212 15.0359 11.3781C13.0842 11.4953 12.509 10.7807 12.7541 9.0546C12.8386 8.45916 12.7573 7.8424 12.7703 7.23568C12.8561 3.19546 13.8687 1.8203 17.9319 0.823719C22.4084 -0.273146 26.9896 -0.236793 31.4538 0.708391C35.467 1.55831 37.134 4.56936 36.9313 7.35477C36.6843 10.7538 36.8754 14.1823 36.8721 17.5982C36.8663 21.8936 34.565 24.1732 30.0747 24.2327C26.3768 24.2816 22.6743 24.3205 18.9782 24.2214C14.5732 24.1023 11.3418 27.6311 11.3197 31.63C11.3197 31.9333 11.3737 32.2467 11.3113 32.5394C10.9941 34.008 12.2614 36.3816 10.6471 36.8178C8.19042 37.4835 5.31392 37.4835 3.14713 35.3693C2.41274 34.6548 1.79403 33.8544 1.46777 32.9293C-0.27333 27.9997 -0.548241 23.0074 1.09083 18.0006C2.11248 14.8755 4.89148 12.9319 8.33404 12.8761C10.8518 12.8353 13.3702 12.8679 15.8879 12.8679L15.8892 12.8592V12.8592ZM20.3749 5.88936C20.2696 4.69659 19.6047 3.826 18.2328 3.78964C16.7321 3.75204 15.9568 4.62702 15.9549 6.05107C15.9536 7.37107 16.699 8.21659 18.0612 8.25483C19.5579 8.29682 20.2826 7.4024 20.3749 5.88936V5.88936Z" fill="#386F9F"/>
<path fill-rule="evenodd" clip-rule="evenodd" d="M34.73 37.0248C31.9744 37.0248 29.2175 37.0016 26.4619 37.0436C25.8412 37.0511 24.8001 36.6725 24.7676 37.696C24.7312 38.8568 25.8484 38.5547 26.5581 38.5616C29.3137 38.5948 32.0719 38.623 34.8269 38.5491C36.2424 38.5115 36.8201 38.7728 36.9261 40.3824C37.405 47.6687 34.1263 48.2986 28.0789 49.6243C24.6097 50.3846 20.8903 49.9816 17.4691 48.5036C14.6401 47.2833 12.9042 45.5245 13.1232 42.2314C13.3403 38.9809 13.3767 35.6885 13.1174 32.4411C12.8054 28.5219 15.3335 25.6393 20.2501 25.638C23.5581 25.6374 26.8882 25.3942 30.1677 25.685C34.8568 26.1 38.5333 22.1801 38.6945 17.6221C38.701 17.4711 38.6607 17.3088 38.701 17.1684C39.1143 15.7675 37.6442 13.6853 39.6108 12.9777C42.5829 11.909 45.9344 13.0322 47.4526 15.2072C49.3666 17.9456 49.6253 21.1678 49.9346 24.3143C50.2693 27.7058 49.2827 30.8986 47.8055 33.9579C46.8021 36.0326 45.1149 37.0354 42.7642 37.0385C40.0866 37.0404 37.4096 37.0385 34.7313 37.0385C34.73 37.0335 34.73 37.0291 34.73 37.0248V37.0248ZM34.0125 43.794C33.7181 42.499 33.1124 41.6153 31.5526 41.5783C29.9305 41.5407 29.5119 42.7109 29.5204 43.7557C29.5295 44.8664 29.8505 46.2328 31.6066 46.1049C33.0663 45.9971 33.7779 45.1253 34.0125 43.794V43.794Z" fill="#FFCF46"/>
</g>
<defs>
<clipPath id="clip0_35_81">
<rect width="50" height="50" fill="white"/>
</clipPath>
</defs>
</svg>
